<svg width="683" height="312" viewBox="0 0 683 312" fill="none" xmlns="http://www.w3.org/2000/svg">
<mask id="path-1-outside-1_91_23" maskUnits="userSpaceOnUse" x="0" y="0" width="683" height="312" fill="black">
<rect fill="white" width="683" height="312"/>
<path d="M319.626 81.9092C331.421 81.9092 341.643 84.8023 350.292 90.5879C358.942 96.3737 365.626 103.916 370.344 113.215C375.258 122.513 377.716 132.638 377.716 143.59C377.716 153.715 375.947 162.807 372.408 170.866C369.831 176.586 366.574 181.866 362.641 186.708C365.949 186.934 369.303 187.131 372.703 187.293C381.549 187.706 390.002 187.913 398.062 187.913C399.404 187.913 400.678 187.981 401.881 188.114C402.448 187.914 403.05 187.788 403.674 187.75C408.418 187.462 412.644 186.793 416.353 185.743C421.464 184.297 425.789 181.405 429.327 177.065C432.866 172.519 435.815 165.906 438.174 157.228C440.354 149.823 442.32 140.311 444.071 128.694C444.579 125.326 447.749 123.006 451.104 123.599L477.955 128.339C481.107 128.895 483.271 131.828 482.745 134.985C482.474 136.615 482.163 138.347 481.814 140.181C481.225 144.313 480.636 148.549 480.046 152.889C479.653 157.021 479.456 160.948 479.456 164.667C479.456 168.386 480.144 171.692 481.52 174.585C482.896 177.478 485.058 179.958 488.007 182.024C491.152 183.884 495.182 185.33 500.097 186.363C505.208 187.396 511.4 187.913 518.674 187.913C519.791 187.913 520.859 187.96 521.879 188.053C522.527 187.709 523.223 187.44 523.941 187.257C526.14 186.697 528.122 185.78 529.888 184.504C533.229 182.024 536.67 177.995 540.208 172.416C543.746 166.63 547.875 158.881 552.593 149.169C557.913 137.984 568.514 123.267 570.537 120.494C570.763 120.184 571.01 119.909 571.295 119.652C573.582 117.588 584.659 107.741 590.632 105.155C597.512 102.056 604.393 100.507 611.273 100.507C619.923 100.507 627.982 102.47 635.452 106.396C641.947 109.809 651.861 119.471 654.338 121.936C654.724 122.32 655.048 122.755 655.312 123.232L667.246 144.821C667.477 145.238 667.656 145.675 667.777 146.136C668.647 149.429 672.312 163.783 672.312 171.796C672.311 181.513 666.973 197.41 665.769 200.872C665.609 201.331 665.398 201.749 665.123 202.149C663.128 205.057 654.191 217.756 647.247 222.318C639.58 227.277 630.734 229.757 620.709 229.757C612.256 229.757 602.427 228.207 591.222 225.107C582.673 222.743 573.781 218.392 564.546 212.059C561.394 215.879 558.099 219.094 554.657 221.698C549.939 225.211 544.337 227.69 537.85 229.137C533.172 230.212 527.842 230.888 521.859 231.164C520.909 231.208 520.013 231.017 519.218 230.646C517.941 230.918 516.907 231.107 516.304 231.211C515.919 231.277 515.539 231.298 515.149 231.28C512.13 231.139 498.021 230.424 491.546 229.137C484.469 227.69 478.276 225.314 472.969 222.008C467.858 218.495 463.631 213.949 460.289 208.37C459.876 207.611 459.485 206.83 459.113 206.028C457.803 207.874 456.428 209.586 454.981 211.16C449.674 216.946 443.678 221.285 436.994 224.178C430.31 227.071 423.331 228.93 416.058 229.757C411.172 230.47 406.333 230.937 401.541 231.158C400.983 231.184 400.445 231.127 399.934 231.003C398.413 231.204 396.806 231.307 395.113 231.307C383.712 231.307 372.506 230.687 361.498 229.447C350.49 228.207 340.267 226.348 330.831 223.868C325.713 222.495 320.957 220.961 316.562 219.271C313.043 220.904 308.658 222.437 303.407 223.868C298.1 225.315 292.104 226.658 285.42 227.897C278.736 228.931 271.561 229.757 263.895 230.377C258.154 230.841 252.137 231.131 245.845 231.248C245.26 231.259 244.696 231.182 244.163 231.034C242.75 231.214 241.265 231.307 239.706 231.307C233.022 231.307 226.338 230.376 219.654 228.517C213.78 226.645 208.631 223.758 204.207 219.854C203.236 231.034 200.72 241.154 196.654 250.214C191.74 261.165 184.86 270.464 176.014 278.109C167.364 285.755 156.847 291.541 144.462 295.467C132.274 299.393 118.611 301.356 103.475 301.356C90.3036 301.356 78.017 299.807 66.6152 296.707C55.4101 293.814 45.4826 289.062 36.833 282.449C28.38 276.044 21.7951 267.777 17.0771 257.652C12.3592 247.527 10 235.336 10 221.078C10 213.846 10.8841 204.857 12.6533 194.112C14.3876 184.45 17.8814 173.18 23.1348 160.302C24.3388 157.35 27.6767 155.919 30.6689 157.019L56.0869 166.359C59.1513 167.486 60.7473 170.855 59.7236 173.955C57.2867 181.335 55.3571 187.847 53.9355 193.492C52.1663 200.311 51.2822 207.027 51.2822 213.64C51.2823 222.938 53.2481 230.894 57.1797 237.506C61.3079 244.118 67.3038 249.181 75.167 252.693C83.2268 256.206 93.056 257.963 104.654 257.963C116.449 257.963 126.278 256.62 134.142 253.934C142.005 251.247 148.197 247.424 152.719 242.465C157.24 237.712 160.483 232.133 162.449 225.728C164.415 219.322 165.398 212.4 165.398 204.961C165.398 199.175 164.71 192.666 163.334 185.434C162.154 178.201 160.385 170.349 158.026 161.877C156.164 155.027 154.118 147.919 151.889 140.554C150.904 137.299 152.792 133.864 156.074 132.977L185.445 125.038C188.687 124.162 192.019 126.116 192.811 129.379C194.109 134.735 195.194 139.472 196.064 143.59C197.441 149.169 198.621 153.819 199.604 157.538C200.586 161.051 201.372 163.944 201.962 166.217C203.928 172.416 206.582 177.065 209.924 180.164C213.266 183.264 217.591 185.33 222.898 186.363C228.403 187.396 234.989 187.913 242.655 187.913C244.574 187.913 246.35 188.051 247.983 188.323C248.03 188.322 248.078 188.321 248.125 188.321C253.61 188.357 258.768 188.221 263.6 187.913C267.233 187.682 270.65 187.382 273.852 187.021C273.081 186.09 272.318 185.148 271.562 184.194C267.826 179.235 264.681 173.655 262.125 167.456C259.766 161.05 258.587 153.921 258.587 146.069C258.587 136.564 260.356 127.885 263.895 120.033C267.433 112.181 272.151 105.466 278.049 99.8867C283.946 94.101 290.531 89.6581 297.805 86.5586C305.078 83.4591 312.352 81.9092 319.626 81.9092ZM610.094 143.899C605.966 143.899 602.427 145.553 599.479 148.859C596.726 151.959 593.974 156.505 591.222 162.497C589.348 166.739 587.156 171.537 584.648 176.89C588.44 178.975 592.104 180.689 595.645 182.024C603.508 184.917 609.995 186.363 615.106 186.363C619.038 186.363 622.281 185.95 624.837 185.124C627.392 184.298 629.26 182.954 630.439 181.095C631.619 179.235 632.209 176.755 632.209 173.655C632.209 169.316 631.226 164.873 629.26 160.327C627.294 155.781 624.641 151.959 621.299 148.859C618.154 145.553 614.418 143.899 610.094 143.899ZM318.741 123.443C315.203 123.443 311.958 124.58 309.01 126.853C306.061 129.126 303.703 132.225 301.934 136.151C300.164 139.871 299.279 144.21 299.279 149.169C299.279 153.508 300.263 157.641 302.229 161.567C304.194 165.287 306.946 168.903 310.484 172.416C311.505 173.429 312.583 174.425 313.718 175.403C314.135 175.763 314.495 176.164 314.804 176.591C317.522 175.293 320.014 173.904 322.279 172.416C326.997 169.11 330.634 165.39 333.189 161.258C335.745 157.125 337.023 152.682 337.023 147.93C337.023 144.21 336.237 140.491 334.664 136.771C333.288 132.845 331.224 129.642 328.472 127.162C325.72 124.683 322.476 123.443 318.741 123.443ZM106.129 57.4229C112.026 57.423 117.039 59.6963 121.167 64.2422C125.492 68.7881 127.654 74.2635 127.654 80.6689C127.654 87.0747 125.492 92.4478 121.167 96.7871C117.039 101.126 112.026 103.296 106.129 103.296C100.035 103.296 94.8248 101.126 90.5 96.7871C86.3718 92.4478 84.3076 87.0747 84.3076 80.6689C84.3077 74.2636 86.3721 68.788 90.5 64.2422C94.8248 59.6962 100.035 57.4229 106.129 57.4229ZM489.776 51.2236C495.281 51.2237 499.998 53.3941 503.93 57.7334C507.861 62.0727 509.828 67.2381 509.828 73.2305C509.828 79.0163 507.861 84.0786 503.93 88.418C499.998 92.5506 495.281 94.6172 489.776 94.6172C484.075 94.6172 479.16 92.5507 475.032 88.418C471.101 84.0787 469.135 79.0161 469.135 73.2305C469.135 67.2383 471.101 62.0726 475.032 57.7334C479.16 53.394 484.075 51.2236 489.776 51.2236ZM438.763 50.9141C444.267 50.9141 448.985 53.0836 452.917 57.4229C456.849 61.7622 458.814 66.9285 458.814 72.9209C458.814 78.7066 456.849 83.7691 452.917 88.1084C448.985 92.2411 444.267 94.3076 438.763 94.3076C433.062 94.3075 428.148 92.241 424.02 88.1084C420.088 83.7691 418.122 78.7066 418.122 72.9209C418.122 66.9285 420.088 61.7622 424.02 57.4229C428.148 53.0837 433.062 50.9142 438.763 50.9141ZM345.574 10.3105C351.079 10.3105 355.797 12.48 359.729 16.8193C363.66 21.1586 365.626 26.3242 365.626 32.3164C365.626 38.1022 363.66 43.1655 359.729 47.5049C355.797 51.6375 351.078 53.7031 345.574 53.7031C339.874 53.7031 334.959 51.6373 330.831 47.5049C326.899 43.1655 324.934 38.1022 324.934 32.3164C324.934 26.3241 326.899 21.1586 330.831 16.8193C334.959 12.4801 339.873 10.3106 345.574 10.3105ZM294.562 10C300.066 10 304.783 12.1698 308.715 16.5088C312.646 20.8481 314.612 26.0144 314.612 32.0068C314.612 37.7926 312.646 42.855 308.715 47.1943C304.783 51.3269 300.066 53.3935 294.562 53.3936C288.861 53.3936 283.946 51.3271 279.817 47.1943C275.886 42.8551 273.92 37.7925 273.92 32.0068C273.92 26.0144 275.886 20.8481 279.817 16.5088C283.946 12.1695 288.861 10 294.562 10Z"/>
</mask>
<path d="M319.626 81.9092C331.421 81.9092 341.643 84.8023 350.292 90.5879C358.942 96.3737 365.626 103.916 370.344 113.215C375.258 122.513 377.716 132.638 377.716 143.59C377.716 153.715 375.947 162.807 372.408 170.866C369.831 176.586 366.574 181.866 362.641 186.708C365.949 186.934 369.303 187.131 372.703 187.293C381.549 187.706 390.002 187.913 398.062 187.913C399.404 187.913 400.678 187.981 401.881 188.114C402.448 187.914 403.05 187.788 403.674 187.75C408.418 187.462 412.644 186.793 416.353 185.743C421.464 184.297 425.789 181.405 429.327 177.065C432.866 172.519 435.815 165.906 438.174 157.228C440.354 149.823 442.32 140.311 444.071 128.694C444.579 125.326 447.749 123.006 451.104 123.599L477.955 128.339C481.107 128.895 483.271 131.828 482.745 134.985C482.474 136.615 482.163 138.347 481.814 140.181C481.225 144.313 480.636 148.549 480.046 152.889C479.653 157.021 479.456 160.948 479.456 164.667C479.456 168.386 480.144 171.692 481.52 174.585C482.896 177.478 485.058 179.958 488.007 182.024C491.152 183.884 495.182 185.33 500.097 186.363C505.208 187.396 511.4 187.913 518.674 187.913C519.791 187.913 520.859 187.96 521.879 188.053C522.527 187.709 523.223 187.44 523.941 187.257C526.14 186.697 528.122 185.78 529.888 184.504C533.229 182.024 536.67 177.995 540.208 172.416C543.746 166.63 547.875 158.881 552.593 149.169C557.913 137.984 568.514 123.267 570.537 120.494C570.763 120.184 571.01 119.909 571.295 119.652C573.582 117.588 584.659 107.741 590.632 105.155C597.512 102.056 604.393 100.507 611.273 100.507C619.923 100.507 627.982 102.47 635.452 106.396C641.947 109.809 651.861 119.471 654.338 121.936C654.724 122.32 655.048 122.755 655.312 123.232L667.246 144.821C667.477 145.238 667.656 145.675 667.777 146.136C668.647 149.429 672.312 163.783 672.312 171.796C672.311 181.513 666.973 197.41 665.769 200.872C665.609 201.331 665.398 201.749 665.123 202.149C663.128 205.057 654.191 217.756 647.247 222.318C639.58 227.277 630.734 229.757 620.709 229.757C612.256 229.757 602.427 228.207 591.222 225.107C582.673 222.743 573.781 218.392 564.546 212.059C561.394 215.879 558.099 219.094 554.657 221.698C549.939 225.211 544.337 227.69 537.85 229.137C533.172 230.212 527.842 230.888 521.859 231.164C520.909 231.208 520.013 231.017 519.218 230.646C517.941 230.918 516.907 231.107 516.304 231.211C515.919 231.277 515.539 231.298 515.149 231.28C512.13 231.139 498.021 230.424 491.546 229.137C484.469 227.69 478.276 225.314 472.969 222.008C467.858 218.495 463.631 213.949 460.289 208.37C459.876 207.611 459.485 206.83 459.113 206.028C457.803 207.874 456.428 209.586 454.981 211.16C449.674 216.946 443.678 221.285 436.994 224.178C430.31 227.071 423.331 228.93 416.058 229.757C411.172 230.47 406.333 230.937 401.541 231.158C400.983 231.184 400.445 231.127 399.934 231.003C398.413 231.204 396.806 231.307 395.113 231.307C383.712 231.307 372.506 230.687 361.498 229.447C350.49 228.207 340.267 226.348 330.831 223.868C325.713 222.495 320.957 220.961 316.562 219.271C313.043 220.904 308.658 222.437 303.407 223.868C298.1 225.315 292.104 226.658 285.42 227.897C278.736 228.931 271.561 229.757 263.895 230.377C258.154 230.841 252.137 231.131 245.845 231.248C245.26 231.259 244.696 231.182 244.163 231.034C242.75 231.214 241.265 231.307 239.706 231.307C233.022 231.307 226.338 230.376 219.654 228.517C213.78 226.645 208.631 223.758 204.207 219.854C203.236 231.034 200.72 241.154 196.654 250.214C191.74 261.165 184.86 270.464 176.014 278.109C167.364 285.755 156.847 291.541 144.462 295.467C132.274 299.393 118.611 301.356 103.475 301.356C90.3036 301.356 78.017 299.807 66.6152 296.707C55.4101 293.814 45.4826 289.062 36.833 282.449C28.38 276.044 21.7951 267.777 17.0771 257.652C12.3592 247.527 10 235.336 10 221.078C10 213.846 10.8841 204.857 12.6533 194.112C14.3876 184.45 17.8814 173.18 23.1348 160.302C24.3388 157.35 27.6767 155.919 30.6689 157.019L56.0869 166.359C59.1513 167.486 60.7473 170.855 59.7236 173.955C57.2867 181.335 55.3571 187.847 53.9355 193.492C52.1663 200.311 51.2822 207.027 51.2822 213.64C51.2823 222.938 53.2481 230.894 57.1797 237.506C61.3079 244.118 67.3038 249.181 75.167 252.693C83.2268 256.206 93.056 257.963 104.654 257.963C116.449 257.963 126.278 256.62 134.142 253.934C142.005 251.247 148.197 247.424 152.719 242.465C157.24 237.712 160.483 232.133 162.449 225.728C164.415 219.322 165.398 212.4 165.398 204.961C165.398 199.175 164.71 192.666 163.334 185.434C162.154 178.201 160.385 170.349 158.026 161.877C156.164 155.027 154.118 147.919 151.889 140.554C150.904 137.299 152.792 133.864 156.074 132.977L185.445 125.038C188.687 124.162 192.019 126.116 192.811 129.379C194.109 134.735 195.194 139.472 196.064 143.59C197.441 149.169 198.621 153.819 199.604 157.538C200.586 161.051 201.372 163.944 201.962 166.217C203.928 172.416 206.582 177.065 209.924 180.164C213.266 183.264 217.591 185.33 222.898 186.363C228.403 187.396 234.989 187.913 242.655 187.913C244.574 187.913 246.35 188.051 247.983 188.323C248.03 188.322 248.078 188.321 248.125 188.321C253.61 188.357 258.768 188.221 263.6 187.913C267.233 187.682 270.65 187.382 273.852 187.021C273.081 186.09 272.318 185.148 271.562 184.194C267.826 179.235 264.681 173.655 262.125 167.456C259.766 161.05 258.587 153.921 258.587 146.069C258.587 136.564 260.356 127.885 263.895 120.033C267.433 112.181 272.151 105.466 278.049 99.8867C283.946 94.101 290.531 89.6581 297.805 86.5586C305.078 83.4591 312.352 81.9092 319.626 81.9092ZM610.094 143.899C605.966 143.899 602.427 145.553 599.479 148.859C596.726 151.959 593.974 156.505 591.222 162.497C589.348 166.739 587.156 171.537 584.648 176.89C588.44 178.975 592.104 180.689 595.645 182.024C603.508 184.917 609.995 186.363 615.106 186.363C619.038 186.363 622.281 185.95 624.837 185.124C627.392 184.298 629.26 182.954 630.439 181.095C631.619 179.235 632.209 176.755 632.209 173.655C632.209 169.316 631.226 164.873 629.26 160.327C627.294 155.781 624.641 151.959 621.299 148.859C618.154 145.553 614.418 143.899 610.094 143.899ZM318.741 123.443C315.203 123.443 311.958 124.58 309.01 126.853C306.061 129.126 303.703 132.225 301.934 136.151C300.164 139.871 299.279 144.21 299.279 149.169C299.279 153.508 300.263 157.641 302.229 161.567C304.194 165.287 306.946 168.903 310.484 172.416C311.505 173.429 312.583 174.425 313.718 175.403C314.135 175.763 314.495 176.164 314.804 176.591C317.522 175.293 320.014 173.904 322.279 172.416C326.997 169.11 330.634 165.39 333.189 161.258C335.745 157.125 337.023 152.682 337.023 147.93C337.023 144.21 336.237 140.491 334.664 136.771C333.288 132.845 331.224 129.642 328.472 127.162C325.72 124.683 322.476 123.443 318.741 123.443ZM106.129 57.4229C112.026 57.423 117.039 59.6963 121.167 64.2422C125.492 68.7881 127.654 74.2635 127.654 80.6689C127.654 87.0747 125.492 92.4478 121.167 96.7871C117.039 101.126 112.026 103.296 106.129 103.296C100.035 103.296 94.8248 101.126 90.5 96.7871C86.3718 92.4478 84.3076 87.0747 84.3076 80.6689C84.3077 74.2636 86.3721 68.788 90.5 64.2422C94.8248 59.6962 100.035 57.4229 106.129 57.4229ZM489.776 51.2236C495.281 51.2237 499.998 53.3941 503.93 57.7334C507.861 62.0727 509.828 67.2381 509.828 73.2305C509.828 79.0163 507.861 84.0786 503.93 88.418C499.998 92.5506 495.281 94.6172 489.776 94.6172C484.075 94.6172 479.16 92.5507 475.032 88.418C471.101 84.0787 469.135 79.0161 469.135 73.2305C469.135 67.2383 471.101 62.0726 475.032 57.7334C479.16 53.394 484.075 51.2236 489.776 51.2236ZM438.763 50.9141C444.267 50.9141 448.985 53.0836 452.917 57.4229C456.849 61.7622 458.814 66.9285 458.814 72.9209C458.814 78.7066 456.849 83.7691 452.917 88.1084C448.985 92.2411 444.267 94.3076 438.763 94.3076C433.062 94.3075 428.148 92.241 424.02 88.1084C420.088 83.7691 418.122 78.7066 418.122 72.9209C418.122 66.9285 420.088 61.7622 424.02 57.4229C428.148 53.0837 433.062 50.9142 438.763 50.9141ZM345.574 10.3105C351.079 10.3105 355.797 12.48 359.729 16.8193C363.66 21.1586 365.626 26.3242 365.626 32.3164C365.626 38.1022 363.66 43.1655 359.729 47.5049C355.797 51.6375 351.078 53.7031 345.574 53.7031C339.874 53.7031 334.959 51.6373 330.831 47.5049C326.899 43.1655 324.934 38.1022 324.934 32.3164C324.934 26.3241 326.899 21.1586 330.831 16.8193C334.959 12.4801 339.873 10.3106 345.574 10.3105ZM294.562 10C300.066 10 304.783 12.1698 308.715 16.5088C312.646 20.8481 314.612 26.0144 314.612 32.0068C314.612 37.7926 312.646 42.855 308.715 47.1943C304.783 51.3269 300.066 53.3935 294.562 53.3936C288.861 53.3936 283.946 51.3271 279.817 47.1943C275.886 42.8551 273.92 37.7925 273.92 32.0068C273.92 26.0144 275.886 20.8481 279.817 16.5088C283.946 12.1695 288.861 10 294.562 10Z" fill="#23B1D0"/>
<path d="M319.626 81.9092L319.626 71.9092H319.626V81.9092ZM350.292 90.5879L355.852 82.276L355.852 82.276L350.292 90.5879ZM370.344 113.215L361.426 117.74L361.464 117.814L361.503 117.888L370.344 113.215ZM377.716 143.59H387.716V143.59L377.716 143.59ZM372.408 170.866L381.525 174.975L381.545 174.931L381.564 174.887L372.408 170.866ZM362.641 186.708L354.879 180.403L342.722 195.369L361.958 196.685L362.641 186.708ZM372.703 187.293L372.226 197.282L372.236 197.282L372.703 187.293ZM398.062 187.913V197.913V197.913V187.913ZM401.881 188.114L400.778 198.053L403.055 198.306L405.215 197.542L401.881 188.114ZM403.674 187.75L403.068 177.768L403.068 177.768L403.674 187.75ZM416.353 185.743L419.076 195.365H419.076L416.353 185.743ZM429.327 177.065L437.077 183.385L437.149 183.297L437.218 183.208L429.327 177.065ZM438.174 157.228L428.581 154.403L428.551 154.503L428.524 154.605L438.174 157.228ZM444.071 128.694L434.183 127.203L434.183 127.204L444.071 128.694ZM451.104 123.599L452.842 113.751L452.842 113.751L451.104 123.599ZM477.955 128.339L476.217 138.187H476.217L477.955 128.339ZM482.745 134.985L492.609 136.628V136.628L482.745 134.985ZM481.814 140.181L471.991 138.312L471.947 138.539L471.915 138.768L481.814 140.181ZM480.046 152.889L470.137 151.542L470.11 151.741L470.091 151.942L480.046 152.889ZM479.456 164.667H469.456V164.667L479.456 164.667ZM481.52 174.585L472.489 178.88L472.489 178.88L481.52 174.585ZM488.007 182.024L482.268 190.214L482.585 190.436L482.917 190.632L488.007 182.024ZM500.097 186.363L498.039 196.149L498.077 196.157L498.115 196.165L500.097 186.363ZM521.879 188.053L520.977 198.012L523.94 198.28L526.567 196.886L521.879 188.053ZM523.941 187.257L526.408 196.948L526.408 196.948L523.941 187.257ZM529.888 184.504L535.745 192.609L535.796 192.572L535.846 192.535L529.888 184.504ZM540.208 172.416L548.653 177.772L548.696 177.703L548.739 177.633L540.208 172.416ZM552.593 149.169L561.588 153.539L561.606 153.502L561.623 153.464L552.593 149.169ZM570.537 120.494L562.459 114.599V114.599L570.537 120.494ZM571.295 119.652L564.595 112.229V112.229L571.295 119.652ZM590.632 105.155L594.604 114.333L594.672 114.303L594.739 114.273L590.632 105.155ZM611.273 100.507L611.273 90.5068H611.273V100.507ZM635.452 106.396L640.104 97.5436L640.104 97.5436L635.452 106.396ZM654.338 121.936L661.39 114.846L661.39 114.846L654.338 121.936ZM655.312 123.232L646.56 128.07V128.07L655.312 123.232ZM667.246 144.821L675.998 139.983V139.983L667.246 144.821ZM667.777 146.136L677.446 143.583L677.446 143.582L667.777 146.136ZM672.312 171.796L682.312 171.796V171.796H672.312ZM665.769 200.872L675.214 204.157V204.157L665.769 200.872ZM665.123 202.149L673.369 207.807V207.807L665.123 202.149ZM647.247 222.318L652.678 230.715L652.708 230.696L652.738 230.676L647.247 222.318ZM620.709 229.757V239.757V239.757V229.757ZM591.222 225.107L588.556 234.745V234.745L591.222 225.107ZM564.546 212.059L570.202 203.812L562.656 198.637L556.833 205.694L564.546 212.059ZM554.657 221.698L560.629 229.719L560.661 229.696L560.692 229.672L554.657 221.698ZM537.85 229.137L535.673 219.376L535.641 219.384L535.609 219.391L537.85 229.137ZM521.859 231.164L522.32 241.153V241.153L521.859 231.164ZM519.218 230.646L523.436 221.58L520.406 220.17L517.138 220.865L519.218 230.646ZM516.304 231.211L517.995 241.067L517.995 241.067L516.304 231.211ZM515.149 231.28L514.682 241.269L514.682 241.269L515.149 231.28ZM491.546 229.137L489.543 238.934L489.569 238.939L489.596 238.945L491.546 229.137ZM472.969 222.008L467.305 230.249L467.49 230.377L467.682 230.496L472.969 222.008ZM460.289 208.37L451.503 213.146L451.603 213.33L451.71 213.509L460.289 208.37ZM459.113 206.028L468.184 201.819L460.933 186.194L450.96 200.238L459.113 206.028ZM454.981 211.16L447.617 204.395L447.612 204.4L454.981 211.16ZM436.994 224.178L440.966 233.355L440.966 233.355L436.994 224.178ZM416.058 229.757L414.929 219.821L414.77 219.839L414.613 219.862L416.058 229.757ZM401.541 231.158L402.001 241.148L402.001 241.148L401.541 231.158ZM399.934 231.003L402.297 221.286L400.477 220.843L398.62 221.09L399.934 231.003ZM395.113 231.307V241.307H395.113L395.113 231.307ZM361.498 229.447L360.379 239.384V239.384L361.498 229.447ZM330.831 223.868L328.239 233.526L328.264 233.533L328.29 233.54L330.831 223.868ZM316.562 219.271L320.153 209.937L316.198 208.416L312.353 210.2L316.562 219.271ZM303.407 223.868L306.036 233.516L306.037 233.516L303.407 223.868ZM285.42 227.897L286.948 237.78L287.096 237.757L287.244 237.73L285.42 227.897ZM263.895 230.377L264.7 240.344V240.344L263.895 230.377ZM245.845 231.248L246.03 241.246H246.03L245.845 231.248ZM244.163 231.034L246.839 221.399L244.898 220.86L242.9 221.114L244.163 231.034ZM239.706 231.307V241.307V241.307V231.307ZM219.654 228.517L216.619 238.045L216.795 238.101L216.974 238.151L219.654 228.517ZM204.207 219.854L210.825 212.356L195.961 199.237L194.245 218.988L204.207 219.854ZM196.654 250.214L205.778 254.308L205.778 254.308L196.654 250.214ZM176.014 278.109L169.475 270.544L169.433 270.58L169.391 270.617L176.014 278.109ZM144.462 295.467L141.44 285.934L141.418 285.941L141.396 285.948L144.462 295.467ZM103.475 301.356V311.356V311.356V301.356ZM66.6152 296.707L69.2385 287.057L69.1769 287.04L69.115 287.025L66.6152 296.707ZM36.833 282.449L42.9063 274.505L42.8895 274.492L42.8727 274.479L36.833 282.449ZM17.0771 257.652L8.01288 261.876L8.01288 261.876L17.0771 257.652ZM10 221.078H0V221.078H10ZM12.6533 194.112L2.81063 192.346L2.79789 192.417L2.78618 192.488L12.6533 194.112ZM23.1348 160.302L13.8755 156.525H13.8755L23.1348 160.302ZM30.6689 157.019L34.1183 147.632L34.1181 147.632L30.6689 157.019ZM56.0869 166.359L59.5369 156.973L59.5363 156.973L56.0869 166.359ZM59.7236 173.955L69.2193 177.091L69.2194 177.09L59.7236 173.955ZM53.9355 193.492L63.615 196.004L63.624 195.969L63.6328 195.934L53.9355 193.492ZM51.2822 213.64H41.2822V213.64L51.2822 213.64ZM57.1797 237.506L48.5843 242.617L48.6397 242.71L48.6972 242.802L57.1797 237.506ZM75.167 252.693L71.0882 261.824L71.1298 261.842L71.1716 261.861L75.167 252.693ZM104.654 257.963V267.963H104.654L104.654 257.963ZM134.142 253.934L137.374 263.397V263.397L134.142 253.934ZM152.719 242.465L145.474 235.572L145.4 235.649L145.329 235.728L152.719 242.465ZM162.449 225.728L172.009 228.661V228.661L162.449 225.728ZM165.398 204.961L175.398 204.961V204.961H165.398ZM163.334 185.434L153.464 187.043L153.486 187.173L153.51 187.303L163.334 185.434ZM158.026 161.877L148.376 164.5L148.385 164.53L148.393 164.559L158.026 161.877ZM151.889 140.554L161.46 137.657V137.657L151.889 140.554ZM156.074 132.977L153.465 123.323L153.465 123.323L156.074 132.977ZM185.445 125.038L188.055 134.692L188.055 134.692L185.445 125.038ZM192.811 129.379L202.529 127.022L202.529 127.022L192.811 129.379ZM196.064 143.59L186.281 145.658L186.315 145.822L186.355 145.985L196.064 143.59ZM199.604 157.538L189.935 160.093L189.954 160.163L189.973 160.233L199.604 157.538ZM201.962 166.217L192.282 168.728L192.349 168.986L192.43 169.24L201.962 166.217ZM209.924 180.164L203.124 187.496L203.124 187.496L209.924 180.164ZM222.898 186.363L220.988 196.179L221.021 196.185L221.054 196.192L222.898 186.363ZM242.655 187.913L242.655 177.913H242.655V187.913ZM247.983 188.323L246.337 198.187L247.234 198.337L248.144 198.322L247.983 188.323ZM248.125 188.321L248.059 198.321V198.321L248.125 188.321ZM263.6 187.913L264.235 197.893V197.893L263.6 187.913ZM273.852 187.021L274.972 196.958L293.346 194.885L281.554 180.643L273.852 187.021ZM271.562 184.194L263.574 190.21L263.648 190.31L263.725 190.407L271.562 184.194ZM262.125 167.456L252.741 170.912L252.807 171.091L252.88 171.267L262.125 167.456ZM258.587 146.069L248.587 146.069V146.069H258.587ZM263.895 120.033L254.778 115.925L254.777 115.925L263.895 120.033ZM278.049 99.8867L284.921 107.151L284.987 107.089L285.052 107.025L278.049 99.8867ZM297.805 86.5586L293.884 77.3591L293.884 77.3591L297.805 86.5586ZM610.094 143.899L610.094 133.899H610.094V143.899ZM599.479 148.859L592.016 142.203L592.008 142.211L592.001 142.22L599.479 148.859ZM591.222 162.497L582.134 158.323L582.104 158.39L582.074 158.457L591.222 162.497ZM584.648 176.89L575.593 172.647L571.616 181.136L579.83 185.652L584.648 176.89ZM595.645 182.024L592.114 191.381L592.153 191.395L592.192 191.409L595.645 182.024ZM615.106 186.363V196.363V196.363V186.363ZM624.837 185.124L627.914 194.639L627.914 194.639L624.837 185.124ZM630.439 181.095L638.884 186.451L638.884 186.451L630.439 181.095ZM632.209 173.655H642.209V173.655L632.209 173.655ZM629.26 160.327L638.438 156.358L638.438 156.358L629.26 160.327ZM621.299 148.859L614.054 155.752L614.269 155.979L614.499 156.191L621.299 148.859ZM318.741 123.443L318.741 113.443H318.741V123.443ZM309.01 126.853L302.905 118.932L302.905 118.933L309.01 126.853ZM301.934 136.151L310.964 140.447L311.008 140.354L311.051 140.26L301.934 136.151ZM299.279 149.169L289.279 149.169V149.169H299.279ZM302.229 161.567L293.287 166.045L293.336 166.143L293.387 166.24L302.229 161.567ZM310.484 172.416L303.439 179.513L303.439 179.513L310.484 172.416ZM313.718 175.403L320.249 167.831L320.248 167.83L313.718 175.403ZM314.804 176.591L306.696 182.445L311.581 189.21L319.112 185.615L314.804 176.591ZM322.279 172.416L327.77 180.774L327.895 180.691L328.018 180.605L322.279 172.416ZM333.189 161.258L341.695 166.517L341.695 166.517L333.189 161.258ZM337.023 147.93L347.023 147.93V147.93H337.023ZM334.664 136.771L325.227 140.079L325.331 140.376L325.453 140.666L334.664 136.771ZM328.472 127.162L335.165 119.733L335.165 119.733L328.472 127.162ZM106.129 57.4229L106.129 47.4229H106.129V57.4229ZM121.167 64.2422L113.764 70.9649L113.842 71.0507L113.922 71.1347L121.167 64.2422ZM127.654 80.6689H137.654V80.6688L127.654 80.6689ZM121.167 96.7871L114.084 89.7279L114.002 89.8102L113.922 89.8944L121.167 96.7871ZM106.129 103.296V113.296H106.129L106.129 103.296ZM90.5 96.7871L83.2549 103.68L83.335 103.764L83.4171 103.846L90.5 96.7871ZM84.3076 80.6689L74.3076 80.6688V80.6689H84.3076ZM90.5 64.2422L83.2549 57.3496L83.1749 57.4337L83.0968 57.5196L90.5 64.2422ZM489.776 51.2236L489.776 41.2236H489.776V51.2236ZM503.93 57.7334L511.34 51.019L511.34 51.019L503.93 57.7334ZM509.828 73.2305H519.828V73.2304L509.828 73.2305ZM503.93 88.418L511.175 95.3106L511.259 95.2225L511.34 95.1323L503.93 88.418ZM489.776 94.6172V104.617H489.776L489.776 94.6172ZM475.032 88.418L467.621 95.1322L467.785 95.3128L467.957 95.4852L475.032 88.418ZM469.135 73.2305L459.135 73.2304V73.2305H469.135ZM475.032 57.7334L467.787 50.8408L467.703 50.929L467.621 51.0192L475.032 57.7334ZM438.763 50.9141V40.9141H438.762L438.763 50.9141ZM452.917 57.4229L460.328 50.7085L460.328 50.7084L452.917 57.4229ZM458.814 72.9209L468.814 72.921V72.9209H458.814ZM452.917 88.1084L460.162 95.0011L460.246 94.9129L460.328 94.8228L452.917 88.1084ZM438.763 94.3076L438.762 104.308H438.763V94.3076ZM424.02 88.1084L416.609 94.8228L416.772 95.0033L416.945 95.1756L424.02 88.1084ZM418.122 72.9209H408.122V72.921L418.122 72.9209ZM424.02 57.4229L416.774 50.5302L416.691 50.6183L416.609 50.7085L424.02 57.4229ZM345.574 10.3105V0.310547H345.574L345.574 10.3105ZM359.729 16.8193L367.139 10.1051L367.139 10.105L359.729 16.8193ZM365.626 32.3164H375.626V32.3163L365.626 32.3164ZM359.729 47.5049L366.974 54.3976L367.057 54.3094L367.139 54.2192L359.729 47.5049ZM345.574 53.7031L345.574 63.7031H345.574V53.7031ZM330.831 47.5049L323.42 54.2192L323.584 54.3998L323.756 54.5723L330.831 47.5049ZM324.934 32.3164L314.934 32.3163V32.3164H324.934ZM330.831 16.8193L323.586 9.92669L323.502 10.0148L323.42 10.105L330.831 16.8193ZM294.562 10L294.562 0H294.562V10ZM308.715 16.5088L316.125 9.79442L316.125 9.79427L308.715 16.5088ZM314.612 32.0068L324.612 32.0068V32.0068H314.612ZM308.715 47.1943L315.96 54.087L316.044 53.9989L316.125 53.9087L308.715 47.1943ZM294.562 53.3936V63.3936H294.562L294.562 53.3936ZM279.817 47.1943L272.407 53.9086L272.57 54.0892L272.742 54.2616L279.817 47.1943ZM273.92 32.0068H263.92V32.0068L273.92 32.0068ZM279.817 16.5088L272.572 9.61616L272.488 9.70428L272.407 9.79442L279.817 16.5088ZM319.626 81.9092L319.626 91.9092C329.714 91.9092 337.941 94.3572 344.732 98.8998L350.292 90.5879L355.852 82.276C345.344 75.2474 333.127 71.9093 319.626 71.9092L319.626 81.9092ZM350.292 90.5879L344.732 98.8998C351.953 103.73 357.482 109.967 361.426 117.74L370.344 113.215L379.262 108.69C373.769 97.8652 365.93 89.0173 355.852 82.276L350.292 90.5879ZM370.344 113.215L361.503 117.888C365.624 125.686 367.716 134.198 367.716 143.59L377.716 143.59L387.716 143.59C387.716 131.079 384.892 119.341 379.185 108.542L370.344 113.215ZM377.716 143.59H367.716C367.716 152.538 366.156 160.231 363.252 166.846L372.408 170.866L381.564 174.887C385.737 165.384 387.716 154.892 387.716 143.59H377.716ZM372.408 170.866L363.291 166.758C361.067 171.692 358.265 176.234 354.879 180.403L362.641 186.708L370.403 193.013C374.882 187.498 378.594 181.479 381.525 174.975L372.408 170.866ZM362.641 186.708L361.958 196.685C365.333 196.916 368.756 197.116 372.226 197.282L372.703 187.293L373.18 177.304C369.851 177.145 366.565 176.953 363.323 176.731L362.641 186.708ZM372.703 187.293L372.236 197.282C381.223 197.702 389.832 197.913 398.062 197.913V187.913V177.913C390.172 177.913 381.875 177.711 373.17 177.304L372.703 187.293ZM398.062 187.913V197.913C399.071 197.913 399.974 197.964 400.778 198.053L401.881 188.114L402.984 178.175C401.382 177.997 399.738 177.913 398.062 177.913V187.913ZM401.881 188.114L405.215 197.542C404.923 197.645 404.608 197.712 404.28 197.732L403.674 187.75L403.068 177.768C401.493 177.864 399.974 178.182 398.547 178.686L401.881 188.114ZM403.674 187.75L404.28 197.732C409.582 197.41 414.539 196.649 419.076 195.365L416.353 185.743L413.63 176.121C410.749 176.936 407.253 177.514 403.068 177.768L403.674 187.75ZM416.353 185.743L419.076 195.365C426.271 193.329 432.315 189.225 437.077 183.385L429.327 177.065L421.577 170.746C419.262 173.585 416.656 175.264 413.629 176.121L416.353 185.743ZM429.327 177.065L437.218 183.208C441.897 177.197 445.291 169.168 447.824 159.851L438.174 157.228L428.524 154.605C426.339 162.645 423.834 167.842 421.436 170.923L429.327 177.065ZM438.174 157.228L447.767 160.052C450.124 152.047 452.172 142.046 453.96 130.185L444.071 128.694L434.183 127.204C432.469 138.576 430.585 147.598 428.581 154.403L438.174 157.228ZM444.071 128.694L453.96 130.185C453.645 132.274 451.645 133.849 449.365 133.446L451.104 123.599L452.842 113.751C443.852 112.164 435.514 118.377 434.183 127.203L444.071 128.694ZM451.104 123.599L449.365 133.446L476.217 138.187L477.955 128.339L479.694 118.491L452.842 113.751L451.104 123.599ZM477.955 128.339L476.217 138.187C474.197 137.83 472.468 135.824 472.881 133.343L482.745 134.985L492.609 136.628C494.074 127.833 488.016 119.96 479.693 118.491L477.955 128.339ZM482.745 134.985L472.881 133.343C472.624 134.887 472.327 136.543 471.991 138.312L481.814 140.181L491.638 142.05C491.999 140.151 492.324 138.343 492.609 136.628L482.745 134.985ZM481.814 140.181L471.915 138.768C471.322 142.925 470.729 147.183 470.137 151.542L480.046 152.889L489.955 154.235C490.542 149.916 491.128 145.702 491.714 141.593L481.814 140.181ZM480.046 152.889L470.091 151.942C469.671 156.353 469.456 160.597 469.456 164.667H479.456H489.456C489.456 161.298 489.634 157.689 490.001 153.836L480.046 152.889ZM479.456 164.667L469.456 164.667C469.456 169.633 470.379 174.445 472.489 178.88L481.52 174.585L490.55 170.29C489.908 168.939 489.456 167.14 489.456 164.667L479.456 164.667ZM481.52 174.585L472.489 178.88C474.696 183.519 478.082 187.281 482.268 190.214L488.007 182.024L493.746 173.835C492.034 172.635 491.095 171.436 490.55 170.289L481.52 174.585ZM488.007 182.024L482.917 190.632C487.281 193.213 492.428 194.97 498.039 196.149L500.097 186.363L502.154 176.577C497.936 175.69 495.023 174.556 493.096 173.417L488.007 182.024ZM500.097 186.363L498.115 196.165C504.077 197.37 510.974 197.913 518.674 197.913V187.913V177.913C511.826 177.913 506.338 177.423 502.078 176.562L500.097 186.363ZM518.674 187.913V197.913C519.509 197.913 520.276 197.948 520.977 198.012L521.879 188.053L522.781 178.093C521.442 177.972 520.072 177.913 518.674 177.913V187.913ZM521.879 188.053L526.567 196.886C526.536 196.902 526.509 196.914 526.485 196.923C526.462 196.932 526.437 196.941 526.408 196.948L523.941 187.257L521.475 177.566C519.986 177.945 518.544 178.502 517.191 179.22L521.879 188.053ZM523.941 187.257L526.408 196.948C529.775 196.091 532.916 194.653 535.745 192.609L529.888 184.504L524.031 176.399C523.328 176.906 522.506 177.303 521.475 177.566L523.941 187.257ZM529.888 184.504L535.846 192.535C540.581 189.022 544.798 183.85 548.653 177.772L540.208 172.416L531.763 167.06C528.542 172.14 525.878 175.027 523.929 176.473L529.888 184.504ZM540.208 172.416L548.739 177.633C552.514 171.461 556.801 163.392 561.588 153.539L552.593 149.169L543.598 144.799C538.949 154.369 534.979 161.799 531.677 167.199L540.208 172.416ZM552.593 149.169L561.623 153.464C566.481 143.252 576.522 129.258 578.615 126.389L570.537 120.494L562.459 114.599C560.506 117.276 549.345 132.716 543.562 144.873L552.593 149.169ZM570.537 120.494L578.615 126.389C578.442 126.625 578.229 126.865 577.995 127.076L571.295 119.652L564.595 112.229C563.791 112.954 563.084 113.743 562.459 114.599L570.537 120.494ZM571.295 119.652L577.995 127.076C579.072 126.104 582.249 123.273 585.83 120.406C589.733 117.282 593.019 115.018 594.604 114.333L590.632 105.155L586.66 95.978C582.271 97.8775 577.033 101.83 573.332 104.792C569.31 108.012 565.805 111.137 564.595 112.229L571.295 119.652ZM590.632 105.155L594.739 114.273C600.454 111.699 605.941 110.507 611.273 110.507V100.507V90.5068C602.846 90.5068 594.571 92.413 586.525 96.0377L590.632 105.155ZM611.273 100.507L611.273 110.507C618.344 110.507 624.802 112.095 630.8 115.247L635.452 106.396L640.104 97.5436C631.163 92.8442 621.501 90.5069 611.273 90.5068L611.273 100.507ZM635.452 106.396L630.8 115.247C632.909 116.356 636.243 118.92 639.816 122.047C643.192 125.001 646.122 127.868 647.286 129.025L654.338 121.936L661.39 114.846C660.076 113.539 656.811 110.343 652.987 106.996C649.361 103.823 644.491 99.8488 640.104 97.5436L635.452 106.396ZM654.338 121.936L647.285 129.025C646.966 128.708 646.728 128.375 646.56 128.07L655.312 123.232L664.063 118.394C663.367 117.136 662.483 115.932 661.39 114.846L654.338 121.936ZM655.312 123.232L646.56 128.07L658.494 149.659L667.246 144.821L675.998 139.983L664.063 118.394L655.312 123.232ZM667.246 144.821L658.494 149.659C658.351 149.4 658.21 149.072 658.109 148.69L667.777 146.136L677.446 143.582C677.101 142.277 676.602 141.077 675.998 139.983L667.246 144.821ZM667.777 146.136L658.109 148.689C658.52 150.244 659.602 154.457 660.574 159.203C661.591 164.164 662.312 168.89 662.312 171.796H672.312H682.312C682.312 166.689 681.2 160.231 680.167 155.189C679.09 149.932 677.905 145.321 677.446 143.583L667.777 146.136ZM672.312 171.796L662.312 171.796C662.311 175.271 661.281 180.609 659.823 186.125C658.428 191.405 656.882 195.981 656.324 197.587L665.769 200.872L675.214 204.157C675.859 202.302 677.584 197.198 679.16 191.234C680.673 185.507 682.311 178.037 682.312 171.796L672.312 171.796ZM665.769 200.872L656.324 197.587C656.456 197.208 656.647 196.827 656.877 196.492L665.123 202.149L673.369 207.807C674.149 206.67 674.762 205.454 675.214 204.157L665.769 200.872ZM665.123 202.149L656.877 196.492C655.957 197.833 653.399 201.484 650.292 205.292C646.973 209.362 643.831 212.598 641.756 213.961L647.247 222.318L652.738 230.676C657.607 227.477 662.406 222.082 665.79 217.935C669.386 213.526 672.294 209.373 673.369 207.807L665.123 202.149ZM647.247 222.318L641.816 213.922C635.925 217.732 629.004 219.757 620.709 219.757V229.757V239.757C632.465 239.757 643.236 236.822 652.678 230.715L647.247 222.318ZM620.709 229.757V219.757C613.423 219.757 604.525 218.412 593.888 215.469L591.222 225.107L588.556 234.745C600.329 238.002 611.089 239.757 620.709 239.757V229.757ZM591.222 225.107L593.888 215.469C586.644 213.466 578.754 209.677 570.202 203.812L564.546 212.059L558.89 220.305C568.809 227.108 578.701 232.02 588.556 234.745L591.222 225.107ZM564.546 212.059L556.833 205.694C554.101 209.004 551.358 211.654 548.622 213.724L554.657 221.698L560.692 229.672C564.84 226.533 568.686 222.754 572.259 218.423L564.546 212.059ZM554.657 221.698L548.685 213.677C545.234 216.247 540.966 218.196 535.673 219.376L537.85 229.137L540.026 238.897C547.708 237.184 554.644 234.175 560.629 229.719L554.657 221.698ZM537.85 229.137L535.609 219.391C531.638 220.304 526.921 220.92 521.399 221.175L521.859 231.164L522.32 241.153C528.762 240.857 534.706 240.121 540.091 238.882L537.85 229.137ZM521.859 231.164L521.399 221.175C522.102 221.142 522.808 221.287 523.436 221.58L519.218 230.646L515 239.713C517.219 240.746 519.717 241.273 522.32 241.153L521.859 231.164ZM519.218 230.646L517.138 220.865C516.003 221.106 515.099 221.271 514.612 221.355L516.304 231.211L517.995 241.067C518.714 240.944 519.878 240.73 521.297 240.428L519.218 230.646ZM516.304 231.211L514.612 221.355C514.972 221.293 515.317 221.277 515.616 221.291L515.149 231.28L514.682 241.269C515.761 241.32 516.866 241.261 517.995 241.067L516.304 231.211ZM515.149 231.28L515.617 221.291C512.295 221.136 499.065 220.436 493.496 219.329L491.546 229.137L489.596 238.945C496.977 240.413 511.965 241.142 514.682 241.269L515.149 231.28ZM491.546 229.137L493.548 219.339C487.458 218.094 482.412 216.109 478.256 213.52L472.969 222.008L467.682 230.496C474.141 234.519 481.48 237.286 489.543 238.934L491.546 229.137ZM472.969 222.008L478.633 213.767C474.762 211.106 471.509 207.64 468.868 203.231L460.289 208.37L451.71 213.509C455.753 220.258 460.953 225.884 467.305 230.249L472.969 222.008ZM460.289 208.37L469.075 203.594C468.77 203.034 468.474 202.443 468.184 201.819L459.113 206.028L450.042 210.238C450.497 211.217 450.982 212.188 451.503 213.146L460.289 208.37ZM459.113 206.028L450.96 200.238C449.871 201.772 448.756 203.155 447.617 204.395L454.981 211.16L462.346 217.925C464.099 216.017 465.735 213.975 467.267 211.818L459.113 206.028ZM454.981 211.16L447.612 204.4C443.18 209.232 438.318 212.708 433.022 215L436.994 224.178L440.966 233.355C449.037 229.862 456.168 224.66 462.35 217.92L454.981 211.16ZM436.994 224.178L433.022 215C427.248 217.5 421.227 219.105 414.929 219.821L416.058 229.757L417.187 239.693C425.435 238.756 433.373 236.642 440.966 233.355L436.994 224.178ZM416.058 229.757L414.613 219.862C410.044 220.529 405.533 220.964 401.081 221.169L401.541 231.158L402.001 241.148C407.133 240.911 412.3 240.411 417.502 239.652L416.058 229.757ZM401.541 231.158L401.081 221.169C401.501 221.149 401.913 221.193 402.297 221.286L399.934 231.003L397.57 240.72C398.976 241.062 400.465 241.218 402.001 241.148L401.541 231.158ZM399.934 231.003L398.62 221.09C397.571 221.229 396.406 221.307 395.113 221.307L395.113 231.307L395.113 241.307C397.207 241.307 399.255 241.18 401.248 240.916L399.934 231.003ZM395.113 231.307V221.307C384.075 221.307 373.243 220.707 362.617 219.51L361.498 229.447L360.379 239.384C371.77 240.667 383.349 241.307 395.113 241.307V231.307ZM361.498 229.447L362.617 219.51C352.026 218.317 342.284 216.538 333.373 214.197L330.831 223.868L328.29 233.54C338.25 236.157 348.954 238.098 360.379 239.384L361.498 229.447ZM330.831 223.868L333.423 214.21C328.604 212.917 324.185 211.488 320.153 209.937L316.562 219.271L312.972 228.604C317.729 230.434 322.822 232.073 328.239 233.526L330.831 223.868ZM316.562 219.271L312.353 210.2C309.499 211.524 305.683 212.883 300.778 214.22L303.407 223.868L306.037 233.516C311.634 231.991 316.587 230.283 320.772 228.341L316.562 219.271ZM303.407 223.868L300.778 214.22C295.789 215.579 290.069 216.864 283.596 218.065L285.42 227.897L287.244 237.73C294.138 236.451 300.41 235.05 306.036 233.516L303.407 223.868ZM285.42 227.897L283.892 218.015C277.478 219.006 270.546 219.807 263.089 220.409L263.895 230.377L264.7 240.344C272.576 239.708 279.995 238.855 286.948 237.78L285.42 227.897ZM263.895 230.377L263.089 220.409C257.572 220.856 251.763 221.137 245.659 221.25L245.845 231.248L246.03 241.246C252.51 241.126 258.735 240.827 264.7 240.344L263.895 230.377ZM245.845 231.248L245.659 221.25C246.074 221.242 246.474 221.297 246.839 221.399L244.163 231.034L241.487 240.67C242.918 241.067 244.445 241.276 246.03 241.246L245.845 231.248ZM244.163 231.034L242.9 221.114C241.932 221.238 240.869 221.307 239.706 221.307V231.307V241.307C241.66 241.307 243.568 241.191 245.426 240.954L244.163 231.034ZM239.706 231.307V221.307C233.963 221.307 228.18 220.509 222.335 218.883L219.654 228.517L216.974 238.151C224.497 240.244 232.082 241.307 239.706 241.307V231.307ZM219.654 228.517L222.689 218.988C218.076 217.519 214.161 215.301 210.825 212.356L204.207 219.854L197.59 227.351C203.101 232.215 209.484 235.772 216.619 238.045L219.654 228.517ZM204.207 219.854L194.245 218.988C193.357 229.198 191.082 238.207 187.531 246.12L196.654 250.214L205.778 254.308C210.358 244.102 213.114 232.87 214.169 220.719L204.207 219.854ZM196.654 250.214L187.531 246.12C183.198 255.776 177.186 263.879 169.475 270.544L176.014 278.109L182.553 285.675C192.533 277.049 200.282 266.555 205.778 254.308L196.654 250.214ZM176.014 278.109L169.391 270.617C161.91 277.229 152.662 282.377 141.44 285.934L144.462 295.467L147.484 304.999C161.031 300.705 172.818 294.28 182.636 285.602L176.014 278.109ZM144.462 295.467L141.396 285.948C130.36 289.503 117.755 291.356 103.475 291.356V301.356V311.356C119.468 311.356 134.188 309.282 147.528 304.985L144.462 295.467ZM103.475 301.356V291.356C91.0897 291.356 79.6938 289.899 69.2385 287.057L66.6152 296.707L63.992 306.357C76.3402 309.714 89.5176 311.356 103.475 311.356V301.356ZM66.6152 296.707L69.115 287.025C59.1226 284.445 50.4271 280.254 42.9063 274.505L36.833 282.449L30.7597 290.394C40.538 297.869 51.6976 303.184 64.1154 306.39L66.6152 296.707ZM36.833 282.449L42.8727 274.479C35.7879 269.11 30.2094 262.159 26.1414 253.429L17.0771 257.652L8.01288 261.876C13.3808 273.396 20.9721 282.977 30.7933 290.419L36.833 282.449ZM17.0771 257.652L26.1414 253.429C22.1855 244.939 20 234.266 20 221.078H10H0C0 236.406 2.53296 250.116 8.01288 261.876L17.0771 257.652ZM10 221.078H20C20 214.588 20.8003 206.184 22.5205 195.737L12.6533 194.112L2.78618 192.488C0.967948 203.53 1.90735e-06 213.103 0 221.078H10ZM12.6533 194.112L22.496 195.879C24.0674 187.125 27.3051 176.554 32.394 164.079L23.1348 160.302L13.8755 156.525C8.45769 169.806 4.70781 181.776 2.81063 192.346L12.6533 194.112ZM23.1348 160.302L32.394 164.079C31.5183 166.226 29.1692 167.121 27.2197 166.405L30.6689 157.019L34.1181 147.632C26.1842 144.717 17.1594 148.474 13.8755 156.525L23.1348 160.302ZM30.6689 157.019L27.2196 166.405L52.6376 175.746L56.0869 166.359L59.5363 156.973L34.1183 147.632L30.6689 157.019ZM56.0869 166.359L52.6369 175.745C50.5602 174.982 49.5871 172.76 50.2279 170.82L59.7236 173.955L69.2194 177.09C71.9075 168.949 67.7425 159.989 59.5369 156.973L56.0869 166.359ZM59.7236 173.955L50.228 170.819C47.7388 178.357 45.7345 185.109 44.2383 191.05L53.9355 193.492L63.6328 195.934C64.9798 190.585 66.8345 184.312 69.2193 177.091L59.7236 173.955ZM53.9355 193.492L44.256 190.981C42.2877 198.567 41.2822 206.127 41.2822 213.64H51.2822H61.2822C61.2822 207.928 62.0449 202.055 63.615 196.004L53.9355 193.492ZM51.2822 213.64L41.2822 213.64C41.2823 224.361 43.5585 234.164 48.5843 242.617L57.1797 237.506L65.7751 232.395C62.9377 227.623 61.2823 221.515 61.2822 213.64L51.2822 213.64ZM57.1797 237.506L48.6972 242.802C53.9886 251.277 61.6066 257.588 71.0882 261.824L75.167 252.693L79.2458 243.563C73.0009 240.773 68.6272 236.959 65.6622 232.21L57.1797 237.506ZM75.167 252.693L71.1716 261.861C80.8251 266.068 92.0983 267.963 104.654 267.963V257.963V247.963C94.0137 247.963 85.6286 246.344 79.1624 243.526L75.167 252.693ZM104.654 257.963L104.654 267.963C117.126 267.963 128.134 266.553 137.374 263.397L134.142 253.934L130.909 244.471C124.423 246.686 115.772 247.963 104.654 247.963L104.654 257.963ZM134.142 253.934L137.374 263.397C146.456 260.294 154.213 255.668 160.109 249.202L152.719 242.465L145.329 235.728C142.181 239.18 137.553 242.201 130.909 244.471L134.142 253.934ZM152.719 242.465L159.964 249.357C165.577 243.458 169.599 236.515 172.009 228.661L162.449 225.728L152.889 222.794C151.368 227.751 148.903 231.967 145.474 235.572L152.719 242.465ZM162.449 225.728L172.009 228.661C174.297 221.207 175.398 213.286 175.398 204.961L165.398 204.961L155.398 204.961C155.398 211.513 154.533 217.437 152.889 222.794L162.449 225.728ZM165.398 204.961H175.398C175.398 198.405 174.621 191.255 173.158 183.564L163.334 185.434L153.51 187.303C154.799 194.077 155.398 199.945 155.398 204.961H165.398ZM163.334 185.434L173.204 183.824C171.955 176.167 170.098 167.952 167.66 159.195L158.026 161.877L148.393 164.559C150.672 172.746 152.354 180.235 153.464 187.043L163.334 185.434ZM158.026 161.877L167.676 159.254C165.787 152.304 163.714 145.105 161.46 137.657L151.889 140.554L142.318 143.451C144.522 150.733 146.542 157.749 148.376 164.5L158.026 161.877ZM151.889 140.554L161.46 137.657C162.095 139.756 160.891 142.034 158.684 142.63L156.074 132.977L153.465 123.323C144.693 125.694 139.712 134.843 142.318 143.451L151.889 140.554ZM156.074 132.977L158.683 142.63L188.055 134.692L185.445 125.038L182.836 115.384L153.465 123.323L156.074 132.977ZM185.445 125.038L188.055 134.692C185.914 135.27 183.638 133.987 183.092 131.736L192.811 129.379L202.529 127.022C200.4 118.245 191.46 113.054 182.836 115.385L185.445 125.038ZM192.811 129.379L183.092 131.736C184.374 137.023 185.436 141.661 186.281 145.658L196.064 143.59L205.848 141.521C204.952 137.283 203.844 132.447 202.529 127.022L192.811 129.379ZM196.064 143.59L186.355 145.985C187.739 151.595 188.934 156.302 189.935 160.093L199.604 157.538L209.272 154.983C208.308 151.336 207.142 146.743 205.773 141.195L196.064 143.59ZM199.604 157.538L189.973 160.233C190.947 163.712 191.714 166.539 192.282 168.728L201.962 166.217L211.641 163.705C211.03 161.349 210.226 158.389 209.234 154.844L199.604 157.538ZM201.962 166.217L192.43 169.24C194.708 176.425 198.087 182.824 203.124 187.496L209.924 180.164L216.724 172.832C215.077 171.305 213.147 168.406 211.494 163.194L201.962 166.217ZM209.924 180.164L203.124 187.496C208.068 192.082 214.195 194.857 220.988 196.179L222.898 186.363L224.809 176.548C220.986 175.803 218.463 174.445 216.724 172.832L209.924 180.164ZM222.898 186.363L221.054 196.192C227.342 197.372 234.579 197.913 242.655 197.913V187.913V177.913C235.398 177.913 229.463 177.421 224.743 176.535L222.898 186.363ZM242.655 187.913L242.655 197.913C244.102 197.913 245.321 198.017 246.337 198.187L247.983 188.323L249.63 178.46C247.379 178.084 245.046 177.913 242.655 177.913L242.655 187.913ZM247.983 188.323L248.144 198.322C248.18 198.321 248.211 198.321 248.225 198.32C248.234 198.32 248.235 198.32 248.239 198.32C248.242 198.32 248.241 198.32 248.237 198.32C248.231 198.32 248.211 198.321 248.182 198.321C248.153 198.321 248.111 198.321 248.059 198.321L248.125 188.321L248.191 178.322C248.045 178.321 247.926 178.323 247.871 178.324C247.844 178.324 247.817 178.325 247.813 178.325C247.803 178.325 247.811 178.325 247.823 178.325L247.983 188.323ZM248.125 188.321L248.059 198.321C253.749 198.358 259.143 198.217 264.235 197.893L263.6 187.913L262.964 177.933C258.394 178.224 253.471 178.356 248.191 178.322L248.125 188.321ZM263.6 187.913L264.235 197.893C268.018 197.652 271.597 197.338 274.972 196.958L273.852 187.021L272.731 177.084C269.703 177.425 266.448 177.711 262.964 177.933L263.6 187.913ZM273.852 187.021L281.554 180.643C280.828 179.766 280.109 178.879 279.398 177.982L271.562 184.194L263.725 190.407C264.526 191.417 265.334 192.414 266.149 193.398L273.852 187.021ZM271.562 184.194L279.549 178.178C276.364 173.949 273.628 169.121 271.37 163.645L262.125 167.456L252.88 171.267C255.733 178.19 259.289 184.521 263.574 190.21L271.562 184.194ZM262.125 167.456L271.509 164C269.614 158.854 268.587 152.917 268.587 146.069H258.587H248.587C248.587 154.926 249.918 163.247 252.741 170.912L262.125 167.456ZM258.587 146.069L268.587 146.069C268.587 137.833 270.113 130.574 273.012 124.142L263.895 120.033L254.777 115.925C250.599 125.197 248.587 135.296 248.587 146.069L258.587 146.069ZM263.895 120.033L273.012 124.142C276.047 117.405 280.027 111.781 284.921 107.151L278.049 99.8867L271.177 92.6223C264.276 99.1504 258.819 106.957 254.778 115.925L263.895 120.033ZM278.049 99.8867L285.052 107.025C290.1 102.073 295.65 98.3468 301.725 95.7581L297.805 86.5586L293.884 77.3591C285.412 80.9694 277.792 86.1296 271.046 92.7484L278.049 99.8867ZM297.805 86.5586L301.725 95.7581C307.868 93.1404 313.813 91.9092 319.626 91.9092V81.9092V71.9092C310.892 71.9092 302.289 73.7777 293.884 77.3591L297.805 86.5586ZM610.094 143.899V133.899C602.887 133.899 596.704 136.946 592.016 142.203L599.479 148.859L606.941 155.516C608.15 154.16 609.044 153.899 610.094 153.899V143.899ZM599.479 148.859L592.001 142.22C588.325 146.36 585.086 151.897 582.134 158.323L591.222 162.497L600.309 166.671C602.862 161.113 605.128 157.558 606.956 155.499L599.479 148.859ZM591.222 162.497L582.074 158.457C580.238 162.615 578.078 167.343 575.593 172.647L584.648 176.89L593.704 181.132C596.235 175.73 598.458 170.864 600.369 166.537L591.222 162.497ZM584.648 176.89L579.83 185.652C583.973 187.93 588.068 189.854 592.114 191.381L595.645 182.024L599.175 172.668C596.141 171.523 592.908 170.019 589.467 168.127L584.648 176.89ZM595.645 182.024L592.192 191.409C600.547 194.483 608.305 196.363 615.106 196.363V186.363V176.363C611.686 176.363 606.468 175.351 599.097 172.639L595.645 182.024ZM615.106 186.363V196.363C619.643 196.363 624.019 195.899 627.914 194.639L624.837 185.124L621.76 175.609C620.544 176.002 618.432 176.363 615.106 176.363V186.363ZM624.837 185.124L627.914 194.639C632.184 193.258 636.198 190.686 638.884 186.451L630.439 181.095L621.995 175.738C622.05 175.651 622.115 175.569 622.181 175.5C622.247 175.431 622.297 175.392 622.315 175.378C622.351 175.352 622.211 175.463 621.76 175.609L624.837 185.124ZM630.439 181.095L638.884 186.451C641.414 182.463 642.209 177.913 642.209 173.655H632.209H622.209C622.209 175.597 621.824 176.007 621.995 175.739L630.439 181.095ZM632.209 173.655L642.209 173.655C642.209 167.77 640.87 161.98 638.438 156.358L629.26 160.327L620.081 164.296C621.582 167.766 622.209 170.862 622.209 173.655L632.209 173.655ZM629.26 160.327L638.438 156.358C635.97 150.65 632.544 145.65 628.099 141.528L621.299 148.859L614.499 156.191C616.737 158.267 618.618 160.913 620.081 164.296L629.26 160.327ZM621.299 148.859L628.544 141.967C623.628 136.8 617.323 133.9 610.094 133.899L610.094 143.899L610.094 153.899C611.514 153.899 612.679 154.307 614.054 155.752L621.299 148.859ZM318.741 123.443V113.443C312.874 113.443 307.506 115.386 302.905 118.932L309.01 126.853L315.115 134.773C316.411 133.773 317.531 133.443 318.741 133.443V123.443ZM309.01 126.853L302.905 118.933C298.462 122.357 295.154 126.855 292.817 132.043L301.934 136.151L311.051 140.26C312.251 137.595 313.66 135.894 315.115 134.773L309.01 126.853ZM301.934 136.151L292.903 131.856C290.379 137.163 289.279 143.022 289.279 149.169L299.279 149.169L309.279 149.169C309.279 145.398 309.95 142.579 310.964 140.447L301.934 136.151ZM299.279 149.169H289.279C289.279 155.082 290.634 160.746 293.287 166.045L302.229 161.567L311.17 157.09C309.892 154.536 309.279 151.934 309.279 149.169H299.279ZM302.229 161.567L293.387 166.24C295.903 171.001 299.311 175.415 303.439 179.513L310.484 172.416L317.53 165.319C314.581 162.392 312.485 159.573 311.07 156.895L302.229 161.567ZM310.484 172.416L303.439 179.513C304.634 180.699 305.884 181.853 307.187 182.976L313.718 175.403L320.248 167.83C319.282 166.997 318.376 166.159 317.53 165.319L310.484 172.416ZM313.718 175.403L307.187 182.976C306.978 182.796 306.816 182.611 306.696 182.445L314.804 176.591L322.911 170.737C322.174 169.716 321.292 168.73 320.249 167.831L313.718 175.403ZM314.804 176.591L319.112 185.615C322.186 184.148 325.081 182.54 327.77 180.774L322.279 172.416L316.789 164.058C314.948 165.267 312.857 166.439 310.496 167.566L314.804 176.591ZM322.279 172.416L328.018 180.605C333.644 176.663 338.306 171.998 341.695 166.517L333.189 161.258L324.684 155.998C322.962 158.783 320.35 161.557 316.54 164.227L322.279 172.416ZM333.189 161.258L341.695 166.517C345.204 160.842 347.023 154.584 347.023 147.93L337.023 147.93L327.023 147.93C327.023 150.78 326.286 153.408 324.684 155.998L333.189 161.258ZM337.023 147.93H347.023C347.023 142.761 345.923 137.721 343.875 132.877L334.664 136.771L325.453 140.666C326.55 143.26 327.023 145.66 327.023 147.93H337.023ZM334.664 136.771L344.101 133.464C342.24 128.154 339.311 123.468 335.165 119.733L328.472 127.162L321.778 134.591C323.137 135.816 324.336 137.537 325.227 140.079L334.664 136.771ZM328.472 127.162L335.165 119.733C330.559 115.583 324.925 113.443 318.741 113.443L318.741 123.443L318.741 133.443C320.027 133.443 320.88 133.783 321.778 134.592L328.472 127.162ZM106.129 57.4229L106.129 67.4229C109.077 67.4229 111.442 68.4083 113.764 70.9649L121.167 64.2422L128.57 57.5195C122.635 50.9844 114.975 47.423 106.129 47.4229L106.129 57.4229ZM121.167 64.2422L113.922 71.1347C116.437 73.7791 117.654 76.7702 117.654 80.6691L127.654 80.6689L137.654 80.6688C137.654 71.7568 134.546 63.797 128.412 57.3496L121.167 64.2422ZM127.654 80.6689H117.654C117.654 84.5628 116.448 87.3561 114.084 89.7279L121.167 96.7871L128.25 103.846C134.536 97.5394 137.654 89.5865 137.654 80.6689H127.654ZM121.167 96.7871L113.922 89.8944C111.648 92.2843 109.24 93.2958 106.129 93.2959L106.129 103.296L106.129 113.296C114.813 113.296 122.43 109.968 128.412 103.68L121.167 96.7871ZM106.129 103.296V93.2959C102.708 93.2959 100.042 92.1955 97.5829 89.7279L90.5 96.7871L83.4171 103.846C89.6074 110.057 97.3616 113.296 106.129 113.296V103.296ZM90.5 96.7871L97.7451 89.8945C95.5162 87.5516 94.3076 84.705 94.3076 80.6689H84.3076H74.3076C74.3076 89.4443 77.2273 97.3439 83.2549 103.68L90.5 96.7871ZM84.3076 80.6689L94.3076 80.6691C94.3077 76.632 95.5235 73.5853 97.9032 70.9648L90.5 64.2422L83.0968 57.5196C77.2206 63.9907 74.3077 71.8951 74.3076 80.6688L84.3076 80.6689ZM90.5 64.2422L97.7451 71.1348C100.245 68.5067 102.864 67.4229 106.129 67.4229V57.4229V47.4229C97.206 47.4229 89.4042 50.8857 83.2549 57.3496L90.5 64.2422ZM489.776 51.2236L489.776 61.2236C492.259 61.2236 494.346 62.0492 496.519 64.4478L503.93 57.7334L511.34 51.019C505.65 44.7389 498.302 41.2237 489.776 41.2236L489.776 51.2236ZM503.93 57.7334L496.519 64.4478C498.743 66.902 499.828 69.6574 499.828 73.2305L509.828 73.2305L519.828 73.2304C519.828 64.8188 516.98 57.2434 511.34 51.019L503.93 57.7334ZM509.828 73.2305H499.828C499.828 76.5001 498.807 79.178 496.519 81.7036L503.93 88.418L511.34 95.1323C516.915 88.9793 519.828 81.5324 519.828 73.2305H509.828ZM503.93 88.418L496.685 81.5253C494.563 83.7553 492.431 84.6172 489.776 84.6172L489.776 94.6172L489.776 104.617C498.13 104.617 505.433 101.346 511.175 95.3106L503.93 88.418ZM489.776 94.6172V84.6172C486.802 84.6172 484.411 83.6575 482.107 81.3507L475.032 88.418L467.957 95.4852C473.909 101.444 481.349 104.617 489.776 104.617V94.6172ZM475.032 88.418L482.443 81.7037C480.155 79.1789 479.135 76.501 479.135 73.2305H469.135H459.135C459.135 81.5312 462.046 88.9785 467.621 95.1322L475.032 88.418ZM469.135 73.2305L479.135 73.2305C479.135 69.6566 480.22 66.901 482.443 64.4476L475.032 57.7334L467.621 51.0192C461.982 57.2442 459.135 64.82 459.135 73.2304L469.135 73.2305ZM475.032 57.7334L482.277 64.626C484.626 62.1578 486.966 61.2236 489.776 61.2236V51.2236V41.2236C481.185 41.2236 473.695 44.6303 467.787 50.8408L475.032 57.7334ZM438.763 50.9141V60.9141C441.247 60.9141 443.334 61.7401 445.506 64.1373L452.917 57.4229L460.328 50.7084C454.636 44.4271 447.287 40.9141 438.763 40.9141V50.9141ZM452.917 57.4229L445.506 64.1372C447.729 66.5903 448.814 69.3462 448.814 72.9209H458.814H468.814C468.814 64.5108 465.968 56.9341 460.328 50.7085L452.917 57.4229ZM458.814 72.9209L448.814 72.9208C448.814 76.1917 447.794 78.8694 445.506 81.394L452.917 88.1084L460.328 94.8228C465.903 88.6688 468.814 81.2215 468.814 72.921L458.814 72.9209ZM452.917 88.1084L445.672 81.2157C443.551 83.4453 441.418 84.3076 438.763 84.3076V94.3076V104.308C447.116 104.308 454.42 101.037 460.162 95.0011L452.917 88.1084ZM438.763 94.3076L438.763 84.3076C435.789 84.3076 433.399 83.3481 431.094 81.0412L424.02 88.1084L416.945 95.1756C422.896 101.134 430.335 104.307 438.762 104.308L438.763 94.3076ZM424.02 88.1084L431.43 81.394C429.143 78.8694 428.122 76.1917 428.122 72.9208L418.122 72.9209L408.122 72.921C408.122 81.2215 411.033 88.6688 416.609 94.8228L424.02 88.1084ZM418.122 72.9209H428.122C428.122 69.3462 429.208 66.5903 431.43 64.1372L424.02 57.4229L416.609 50.7085C410.968 56.9341 408.122 64.5108 408.122 72.9209H418.122ZM424.02 57.4229L431.265 64.3155C433.612 61.848 435.952 60.9141 438.763 60.9141L438.763 50.9141L438.762 40.9141C430.172 40.9142 422.683 44.3193 416.774 50.5302L424.02 57.4229ZM345.574 10.3105V20.3105C348.059 20.3105 350.146 21.1365 352.318 23.5337L359.729 16.8193L367.139 10.105C361.448 3.82349 354.098 0.310547 345.574 0.310547V10.3105ZM359.729 16.8193L352.318 23.5336C354.541 25.9869 355.626 28.7424 355.626 32.3165L365.626 32.3164L375.626 32.3163C375.626 23.9061 372.779 16.3302 367.139 10.1051L359.729 16.8193ZM365.626 32.3164H355.626C355.626 35.5877 354.605 38.2661 352.318 40.7905L359.729 47.5049L367.139 54.2192C372.715 48.0649 375.626 40.6167 375.626 32.3164H365.626ZM359.729 47.5049L352.483 40.6122C350.363 42.8409 348.231 43.7031 345.574 43.7031V53.7031V63.7031C353.926 63.7031 361.231 60.4341 366.974 54.3976L359.729 47.5049ZM345.574 53.7031L345.574 43.7031C342.599 43.7031 340.21 42.7437 337.906 40.4375L330.831 47.5049L323.756 54.5723C329.709 60.5309 337.148 63.7031 345.574 63.7031L345.574 53.7031ZM330.831 47.5049L338.242 40.7905C335.954 38.2661 334.934 35.5877 334.934 32.3164H324.934H314.934C314.934 40.6167 317.844 48.0649 323.42 54.2192L330.831 47.5049ZM324.934 32.3164L334.934 32.3165C334.934 28.7422 336.019 25.9869 338.242 23.5337L330.831 16.8193L323.42 10.105C317.78 16.3303 314.934 23.906 314.934 32.3163L324.934 32.3164ZM330.831 16.8193L338.076 23.712C340.424 21.2443 342.764 20.3106 345.574 20.3105L345.574 10.3105L345.574 0.310547C336.983 0.31062 329.495 3.71582 323.586 9.92669L330.831 16.8193ZM294.562 10L294.561 20C297.045 20 299.132 20.8257 301.304 23.2233L308.715 16.5088L316.125 9.79427C310.435 3.51376 303.086 6.67572e-05 294.562 0L294.562 10ZM308.715 16.5088L301.304 23.2232C303.527 25.6762 304.612 28.4321 304.612 32.0068H314.612H324.612C324.612 23.5967 321.766 16.02 316.125 9.79442L308.715 16.5088ZM314.612 32.0068L304.612 32.0068C304.612 35.2777 303.592 37.9553 301.304 40.48L308.715 47.1943L316.125 53.9087C321.701 47.7547 324.612 40.3075 324.612 32.0068L314.612 32.0068ZM308.715 47.1943L301.47 40.3017C299.348 42.5316 297.217 43.3935 294.561 43.3936L294.562 53.3936L294.562 63.3936C302.915 63.3935 310.218 60.1223 315.96 54.087L308.715 47.1943ZM294.562 53.3936V43.3936C291.587 43.3936 289.197 42.4339 286.892 40.1271L279.817 47.1943L272.742 54.2616C278.695 60.2202 286.134 63.3936 294.562 63.3936V53.3936ZM279.817 47.1943L287.228 40.4801C284.941 37.9553 283.92 35.2775 283.92 32.0068L273.92 32.0068L263.92 32.0068C263.92 40.3075 266.831 47.7548 272.407 53.9086L279.817 47.1943ZM273.92 32.0068H283.92C283.92 28.4321 285.005 25.6762 287.228 23.2232L279.817 16.5088L272.407 9.79442C266.766 16.02 263.92 23.5967 263.92 32.0068H273.92ZM279.817 16.5088L287.062 23.4014C289.41 20.9341 291.75 20 294.562 20V10V0C285.971 0 278.481 3.40486 272.572 9.61616L279.817 16.5088Z" fill="#005A71" mask="url(#path-1-outside-1_91_23)"/>
</svg>
